<?xml version="1.0" standalone="no"?>
<!DOCTYPE svg PUBLIC "-//W3C//DTD SVG 20010904//EN"
 "http://www.w3.org/TR/2001/REC-SVG-20010904/DTD/svg10.dtd">
<svg version="1.0" xmlns="http://www.w3.org/2000/svg"
 width="300.000000pt" height="300.000000pt" viewBox="0 0 300.000000 300.000000"
 preserveAspectRatio="xMidYMid meet">
<metadata>
Created by potrace 1.11, written by Peter Selinger 2001-2013
</metadata>
<g transform="translate(0.000000,300.000000) scale(0.100000,-0.100000)"
fill="#000000" stroke="none">
<path d="M0 1500 l0 -1500 1500 0 1500 0 0 1500 0 1500 -1500 0 -1500 0 0
-1500z m1845 1020 c566 -121 915 -480 1050 -1076 24 -104 27 -134 23 -240 -5
-138 -23 -187 -69 -192 -34 -4 -41 6 -79 123 -61 189 -145 321 -297 464 -243
231 -534 350 -893 367 -324 16 -621 -55 -867 -207 -116 -72 -283 -236 -357
-350 -62 -96 -117 -218 -142 -312 -19 -75 -30 -89 -63 -85 -48 6 -66 56 -69
198 -3 110 0 140 23 240 15 63 41 153 57 200 174 497 549 804 1078 885 144 21
473 14 605 -15z m-252 -897 l85 -208 99 -22 c54 -11 121 -30 149 -41 l51 -20
184 133 c101 73 185 132 187 131 1 -2 -14 -96 -33 -210 -19 -114 -35 -217 -35
-228 0 -11 21 -43 46 -72 133 -147 221 -333 231 -486 5 -77 3 -88 -17 -113
-36 -45 -66 -34 -123 43 -166 224 -401 374 -665 424 -247 47 -519 21 -734 -69
-150 -63 -307 -187 -401 -315 -85 -115 -114 -132 -153 -89 -16 17 -19 35 -17
103 2 152 88 339 229 502 l53 61 -39 224 c-21 123 -37 225 -36 226 1 1 83 -56
182 -127 98 -71 186 -130 194 -130 9 0 41 9 73 20 31 11 94 28 139 38 l83 17
85 207 c47 114 88 208 91 208 3 0 44 -93 92 -207z"/>
</g>
</svg>
